<?xml version="1.0" encoding="UTF-8"?>
<svg width="273px" height="306px" viewBox="0 0 273 306" version="1.1"
    xmlns="http://www.w3.org/2000/svg"
    xmlns:xlink="http://www.w3.org/1999/xlink">
    <g id="Page-1" stroke="none" stroke-width="1" fill="none" fill-rule="evenodd" opacity="0.3">
        <g id="Services_MainPage1_vid" transform="translate(-1239.000000, -1974.000000)" stroke="#5cb0bd">
            <g id="Group-6" transform="translate(1071.000000, 1963.000000)">
                <path d="M291.08814,312.703067 L182.429346,249.947644 C174.779165,245.522582 169,235.535585 169,226.702951 L169,101.200852 C169,92.3682182 174.779165,82.3724757 182.420603,77.956159 L291.08814,15.2007364 C298.467286,10.9330879 310.558943,10.9330879 317.920603,15.2007364 L426.579397,77.956159 C434.229578,82.3724757 440,92.3682182 440,101.200852 L440,226.702951 C440,235.535585 434.229578,245.522582 426.579397,249.947644 L317.920603,312.703067 C314.239773,314.836891 309.474803,316 304.508743,316 C299.542683,316 294.777713,314.836891 291.08814,312.703067 Z" id="ozdobnik"></path>
            </g>
        </g>
    </g>
</svg>
