<?xml version="1.0" standalone="no"?>
<!DOCTYPE svg PUBLIC "-//W3C//DTD SVG 20010904//EN"
 "http://www.w3.org/TR/2001/REC-SVG-20010904/DTD/svg10.dtd">
<svg version="1.0" xmlns="http://www.w3.org/2000/svg"
 width="46.000000pt" height="45.000000pt" viewBox="0 0 46.000000 45.000000"
 preserveAspectRatio="xMidYMid meet">

<g transform="translate(0.000000,45.000000) scale(0.100000,-0.100000)"
fill="#4C5273" stroke="#4C5273" stroke-width="7">
<path d="M214 439 c-70 -19 -100 -99 -64 -169 11 -21 24 -42 30 -45 11 -7 4
-25 -10 -25 -5 0 -10 7 -12 15 -2 13 -10 10 -38 -13 -30 -25 -38 -28 -63 -20
-35 13 -42 7 -31 -29 7 -27 8 -27 12 -4 3 20 7 22 35 16 18 -4 59 -10 92 -14
l60 -6 6 -65 6 -65 1 78 2 77 38 0 c21 0 61 6 90 14 l52 13 1 -41 2 -41 7 45
c4 25 6 46 5 48 -2 2 -20 -1 -41 -7 -31 -9 -41 -7 -64 9 -24 17 -29 18 -34 4
-3 -8 -11 -12 -17 -9 -7 5 -6 12 4 23 58 69 54 155 -10 200 -22 14 -35 17 -59
11z m27 -26 c0 -11 3 -13 6 -5 7 17 20 15 43 -8 40 -40 27 -50 -60 -50 -86 0
-94 6 -64 48 11 16 22 21 35 17 11 -4 19 -2 19 4 0 19 20 12 21 -6z m65 -82
c-4 -5 -1 -11 5 -13 6 -2 -1 -23 -16 -51 -29 -51 -59 -66 -94 -48 -25 14 -66
94 -51 99 5 2 8 8 4 13 -3 5 29 9 76 9 47 0 79 -4 76 -9z m-36 -135 c0 -4 14
-6 30 -2 19 3 29 2 25 -4 -3 -6 -26 -10 -51 -10 -24 0 -44 -4 -44 -10 0 -11
-79 -14 -104 -4 -26 10 1 35 29 28 13 -3 25 -2 28 3 7 11 87 11 87 -1z"/>
<path d="M208 363 c12 -2 32 -2 45 0 12 2 2 4 -23 4 -25 0 -35 -2 -22 -4z"/>
<path d="M170 300 c0 -14 7 -20 24 -20 13 0 27 6 29 13 4 9 8 9 15 -1 13 -19
46 -11 50 11 3 15 -5 17 -57 17 -54 0 -61 -2 -61 -20z m40 0 c0 -5 -7 -10 -15
-10 -8 0 -15 5 -15 10 0 6 7 10 15 10 8 0 15 -4 15 -10z m70 0 c0 -5 -7 -10
-15 -10 -8 0 -15 5 -15 10 0 6 7 10 15 10 8 0 15 -4 15 -10z"/>
<path d="M12 108 c-7 -7 -12 -29 -12 -49 0 -73 62 -78 68 -5 5 54 -26 84 -56
54z m40 -16 c-10 -3 -10 -7 -1 -18 9 -11 8 -14 -2 -14 -11 0 -11 -2 1 -10 9
-6 11 -10 3 -10 -7 0 -10 -7 -6 -16 4 -12 1 -15 -13 -12 -14 2 -20 13 -22 42
-4 41 10 59 37 48 10 -4 11 -7 3 -10z"/>
<path d="M400 62 c0 -54 15 -70 45 -48 12 8 16 23 13 51 -3 35 -6 40 -30 43
-27 3 -28 2 -28 -46z m45 -2 c0 -27 -4 -35 -20 -38 -16 -3 -17 -1 -5 7 8 6 10
11 5 11 -6 0 -11 14 -11 31 -1 23 2 29 15 27 11 -2 16 -14 16 -38z"/>
</g>
</svg>
